#N canvas 64 64 1600 846 12;
#X obj 601 147 openpanel;
#X obj 106 187 bng 24 250 50 0 empty empty open 0 -12 0 16 #606060 #000000 #000000;
#X obj 602 209 readsf~;
#X msg 601 183 open \$1;
#X msg 421 163 1;
#X obj 638 117 symbol;
#X obj 422 135 t b b;
#X obj 160 186 bng 24 250 50 0 empty empty start 0 -12 0 16 #00ff04 #000000 #000000;
#X msg 482 162 0;
#X obj 482 133 t b b;
#X obj 212 187 bng 24 250 50 0 empty empty stop 0 -12 0 16 #ff0400 #000000 #000000;
#X obj 714 233 spigot;
#X obj 264 187 tgl 24 0 empty empty loop 0 -12 0 16 #ff8300 #000000 #000000 0 1;
#X obj 715 261 s loopplay;
#X obj 369 78 r loopplay;
#X obj 598 280 outlet~;
#X connect 0 0 3 0;
#X connect 0 0 5 0;
#X connect 1 0 0 0;
#X connect 2 0 15 0;
#X connect 2 1 11 0;
#X connect 3 0 2 0;
#X connect 4 0 2 0;
#X connect 5 0 3 0;
#X connect 6 0 4 0;
#X connect 6 1 5 0;
#X connect 7 0 6 0;
#X connect 8 0 2 0;
#X connect 9 0 8 0;
#X connect 9 1 5 0;
#X connect 10 0 9 0;
#X connect 11 0 13 0;
#X connect 12 0 11 1;
#X connect 14 0 7 0;
#X coords 0 -1 1 1 200 120 1 100 100;
