#N canvas 220 220 1686 1111 12;
#X obj 13 554 dac~;
#X obj 15 200 soundfiler;
#X obj 15 89 openpanel;
#X obj 15 70 bng 15 250 50 0 empty empty empty 17 7 0 10 #fcfcfc #000000 #000000;
#X floatatom 15 268 20 0 0 0 - - - 0;
#N canvas 931 425 1366 483 sample 0;
#N canvas 0 50 450 300 (subpatch) 0;
#X array \$0-soundfile 8.4992e+06 float 2;
#X coords 0 1 8.4992e+06 -1 200 140 1;
#X restore 17 27 graph;
#X restore 14 36 pd sample;
#X text 14 9 Audio;
#X text 81 38 Storage for the sample;
#X text 35 68 loading the audio into the buffer;
#X obj 15 112 t a b;
#X obj 42 132 symbol \$0-soundfile;
#X obj 15 155 pack s s;
#X msg 15 178 read -resize \$1 \$2;
#X obj 13 466 tabplay~ \$0-soundfile;
#X obj 13 355 t b b;
#X msg 13 329 bang;
#X obj 15 223 / 48000;
#X obj 24 247 s \$0-seconds;
#X text 52 330 start playback;
#X obj 14 521 *~ 0;
#X obj 70 495 vsl 15 50 0 1 0 0 empty empty empty 0 -9 0 10 #fcfcfc #000000 #000000 0 1;
#X connect 1 0 16 0;
#X connect 2 0 9 0;
#X connect 3 0 2 0;
#X connect 9 0 11 0;
#X connect 9 1 10 0;
#X connect 10 0 11 1;
#X connect 11 0 12 0;
#X connect 12 0 1 0;
#X connect 13 0 19 0;
#X connect 14 0 13 0;
#X connect 15 0 14 0;
#X connect 16 0 4 0;
#X connect 16 0 17 0;
#X connect 19 0 0 0;
#X connect 19 0 0 1;
#X connect 20 0 19 1;
