#N canvas 2073 218 1587 1662 16;
#X declare -lib Gem;
#X obj 22 14 cnv 15 480 60 empty empty let's_play_video 20 30 0 20 #fcfcc4 #606060 0;
#X obj 34 238 gemwin;
#X msg 108 241 0 \, destroy;
#X text 142 195 this opens the GEM window and starts the rendering;
#X text 141 214 this stops the rendering and closes the GEM window;
#X obj 48 788 pix_texture;
#X obj 33 305 gemhead;
#X obj 67 342 bng 15 250 50 0 empty empty empty 17 7 0 10 #fcfcfc #000000 #000000;
#X obj 67 360 openpanel;
#X msg 68 392 open \$1;
#X text 163 789 this maps the pixels of the video on;
#X text 167 870 a geometrical object;
#X obj 574 26 declare -lib Gem;
#X text 31 115 You load extensions either by adding it generally to the startup flags like this: -lib Gem;
#X text 34 149 Or by declaring it to this patch (but only to this one);
#X text 33 82 We'll use an extension (in Pd called external) to Pure data \, GEM to play video;
#X msg 34 194 create \, 1;
#X obj 627 73 import GEM;
#X msg 298 269 dimen 1080 720;
#X obj 33 446 pix_film;
#X obj 49 868 square 3;
#X obj 49 823 translateXYZ;
#X obj 518 1030 vsl 40 100 0 1 0 0 empty empty empty 0 -9 0 16 #fcfcfc #000000 #000000 0 1;
#X obj 60 495 unpack f f f;
#X floatatom 50 526 5 0 0 0 - - - 0;
#X floatatom 108 524 5 0 0 0 - - - 0;
#X floatatom 166 524 5 0 0 0 - - - 0;
#X obj 204 372 tgl 24 0 empty empty empty 0 -12 0 16 #fcfcfc #000000 #000000 0 1;
#X msg 128 425 auto \$1;
#X obj 6 305 tgl 24 0 empty empty empty 0 -12 0 16 #fcfcfc #000000 #000000 0 1;
#X obj 298 309 gemhead;
#X obj 331 341 bng 15 250 50 0 empty empty empty 17 7 0 10 #fcfcfc #000000 #000000;
#X obj 332 364 openpanel;
#X msg 333 396 open \$1;
#X text 360 337 open a video clip here;
#X text 470 424 frame #;
#X text 409 456 this handles the video file;
#X text 433 476 (and optional: the default clip to load);
#X obj 298 450 pix_film;
#X obj 325 499 unpack f f f;
#X floatatom 315 530 5 0 0 0 - - - 0;
#X floatatom 373 528 5 0 0 0 - - - 0;
#X floatatom 431 528 5 0 0 0 - - - 0;
#X obj 469 376 tgl 24 0 empty empty empty 0 -12 0 16 #fcfcfc #000000 #000000 0 1;
#X msg 393 429 auto \$1;
#X obj 271 309 tgl 24 0 empty empty empty 0 -12 0 16 #fcfcfc #000000 #000000 0 1;
#X text 168 472;
#X text 144 452;
#X text 205 420;
#X text 95 332;
#X msg 180 823 0;
#X floatatom 513 1161 5 0 0 0 - - - 0;
#X obj 431 981 pix_image;
#X obj 430 897 bng 15 250 50 0 empty empty empty 17 7 0 10 #fcfcfc #000000 #000000;
#X obj 430 915 openpanel;
#X msg 431 947 open \$1;
#X obj 547 981 pix_image;
#X obj 546 897 bng 15 250 50 0 empty empty empty 17 7 0 10 #fcfcfc #000000 #000000;
#X obj 546 915 openpanel;
#X msg 547 947 open \$1;
#X text 60 1012;
#X obj 450 838 gemhead;
#X obj 423 838 tgl 24 0 empty empty empty 0 -12 0 16 #fcfcfc #000000 #000000 0 1;
#X obj 574 841 gemhead;
#X obj 547 841 tgl 24 0 empty empty empty 0 -12 0 16 #fcfcfc #000000 #000000 0 1;
#X obj 45 750 pix_mix \$1;
#X msg 575 1158 0.5 0.5;
#X text 590 1135 default;
#X text 156 675 denna funkar me bilder! ej den ovan med videos...;
#X connect 2 0 1 0;
#X connect 5 0 21 0;
#X connect 7 0 8 0;
#X connect 8 0 9 0;
#X connect 9 0 19 0;
#X connect 16 0 1 0;
#X connect 18 0 1 0;
#X connect 19 1 23 0;
#X connect 21 0 20 0;
#X connect 22 0 51 0;
#X connect 23 0 24 0;
#X connect 23 1 25 0;
#X connect 23 2 26 0;
#X connect 27 0 28 0;
#X connect 28 0 19 0;
#X connect 29 0 6 0;
#X connect 31 0 32 0;
#X connect 32 0 33 0;
#X connect 33 0 38 0;
#X connect 38 1 39 0;
#X connect 39 0 40 0;
#X connect 39 1 41 0;
#X connect 39 2 42 0;
#X connect 43 0 44 0;
#X connect 44 0 38 0;
#X connect 45 0 30 0;
#X connect 50 0 21 3;
#X connect 50 0 21 2;
#X connect 50 0 21 1;
#X connect 51 0 65 2;
#X connect 52 0 65 0;
#X connect 53 0 54 0;
#X connect 54 0 55 0;
#X connect 55 0 52 0;
#X connect 56 0 65 1;
#X connect 57 0 58 0;
#X connect 58 0 59 0;
#X connect 59 0 56 0;
#X connect 61 0 52 0;
#X connect 62 0 61 0;
#X connect 63 0 56 0;
#X connect 64 0 63 0;
#X connect 65 0 5 0;
#X connect 66 0 65 2;
