#N canvas 311 231 1604 850 12;
#X obj 96 85 gemwin;
#X obj 72 86 tgl 19 0 empty empty empty 0 -10 0 12 #fcfcfc #000000 #000000 0 1;
#X msg 123 54 create;
#X msg 178 52 destroy;
#X msg 127 25 dimen 800 600;
#X msg 18 588 draw line;
#X msg 19 610 draw point;
#X obj 323 57 gemhead;
#X obj 322 99 part_head;
#X obj 322 160 part_source;
#X obj 323 192 part_killold;
#X floatatom 410 74 5 0 0 0 - - - 0;
#X floatatom 414 170 5 0 0 0 - - - 0;
#X floatatom 351 128 5 0 0 0 - - - 0;
#X msg 411 99 speed \$1;
#X obj 342 285 scaleXYZ;
#X floatatom 413 281 5 0 0 0 - - - 0;
#X floatatom 453 282 5 0 0 0 - - - 0;
#X floatatom 495 283 5 0 0 0 - - - 0;
#X floatatom 420 248 5 0 0 0 - - - 0;
#X floatatom 460 249 5 0 0 0 - - - 0;
#X floatatom 502 250 5 0 0 0 - - - 0;
#X obj 340 253 rotateXYZ;
#X floatatom 409 128 5 0 0 0 - - - 0;
#X floatatom 448 128 5 0 0 0 - - - 0;
#X floatatom 419 367 5 0 0 0 - - - 0;
#X floatatom 459 368 5 0 0 0 - - - 0;
#X floatatom 501 367 5 0 0 0 - - - 0;
#X obj 325 366 translateXYZ;
#X obj 328 473 part_velocity sphere 0 0.1 0 0.1;
#X msg 473 325 -3.13;
#X msg 524 331 0.33;
#X msg 473 166 40.55;
#X msg 460 72 0.17;
#X msg 514 123 95;
#X obj 326 440 part_gravity 0 -0.01 0;
#X obj 324 407 part_orbitpoint 2 0 0;
#X floatatom 484 402 5 0 0 0 - - - 0;
#X text 531 404 nice att modulera!;
#X obj 329 522 part_color;
#X msg 357 497 1 1 0;
#X msg 417 499 0 0 1;
#X text 461 502 tryck för färger;
#X obj 329 555 part_render;
#X floatatom 159 593 5 0 0 0 - - - 0;
#X obj 107 601 circle;
#X obj 506 605 sphere;
#X floatatom 562 595 5 0 0 0 - - - 0;
#X floatatom 602 594 5 0 0 0 - - - 0;
#X msg 563 623 draw line;
#X msg 568 568 17;
#X msg 613 570 17;
#X obj 35 0 tgl 19 0 empty empty empty 0 -10 0 12 #fcfcfc #000000 #000000 0 1;
#X msg 36 23 lighting \$1;
#X obj 7 215 gemhead;
#X obj 9 248 world_light;
#X msg 68 222 1 1 1;
#X msg 17 562 draw fill;
#X msg 643 621 draw fill;
#X text 4 157 lighting ger skuggor/highlights åt 3-d objekt!;
#X obj 667 82 gemhead 50;
#X obj 667 155 pix_video;
#X obj 667 190 pix_texture;
#X obj 665 227 pix_rectangle 5.33 4;
#X obj 83 730 text3d;
#X msg 7 711 text epic;
#X floatatom 132 711 5 0 0 0 - - - 0;
#X text 176 713 size;
#X obj 431 733 rectangle;
#X floatatom 452 709 5 0 0 0 - - - 0;
#X floatatom 493 710 5 0 0 0 - - - 0;
#X obj 325 649 pix_image;
#X obj 324 696 pix_texture;
#X msg 297 626 open dremclouds.jpg;
#X obj 325 673 alpha;
#X obj 1353 86 print received;
#X floatatom 1038 158 5 0 0 0 - - - 0;
#X obj 1044 125 route Note Height Energy;
#X obj 1338 139 print received;
#X obj 1007 147 bng 24 250 50 0 empty empty empty 0 -12 0 16 #fcfcfc #000000 #000000;
#X obj 1112 158 int;
#X floatatom 1122 187 5 0 0 0 - - - 0;
#X floatatom 1278 226 17 0 0 0 - - - 0;
#X obj 1181 156 f;
#X obj 1160 292 - 10;
#X obj 1124 321 * 10;
#X floatatom 1141 421 5 0 0 0 - - - 0;
#X obj 1138 490 - 1;
#X obj 1126 550 * 2;
#X obj 1044 63 netreceive 13002;
#X obj 1280 194 r energii;
#X floatatom 1169 560 5 0 0 0 - - - 0;
#X obj 184 333 tgl 19 0 empty empty empty 0 -10 0 12 #fcfcfc #000000 #000000 0 1;
#X obj 54 499 sel 0;
#X obj 106 498 sel 1;
#X obj 899 353 bng 24 250 50 0 empty empty empty 0 -12 0 16 #fcfcfc #000000 #000000;
#X msg 122 222 0.7 0.3 0.1;
#X msg 122 247 0.9 0.1 0.1;
#X obj 105 451 random 3;
#X floatatom 100 471 5 0 0 0 - - - 0;
#X obj 154 495 sel 2;
#X connect 1 0 0 0;
#X connect 2 0 0 0;
#X connect 3 0 0 0;
#X connect 4 0 0 0;
#X connect 5 0 45 0;
#X connect 6 0 45 0;
#X connect 7 0 8 0;
#X connect 8 0 9 0;
#X connect 9 0 10 0;
#X connect 10 0 28 0;
#X connect 11 0 14 0;
#X connect 12 0 10 1;
#X connect 13 0 9 1;
#X connect 14 0 8 0;
#X connect 16 0 15 1;
#X connect 17 0 15 2;
#X connect 18 0 15 3;
#X connect 19 0 22 1;
#X connect 20 0 22 2;
#X connect 21 0 22 3;
#X connect 22 0 15 0;
#X connect 25 0 28 1;
#X connect 26 0 28 2;
#X connect 27 0 28 3;
#X connect 28 0 36 0;
#X connect 29 0 39 0;
#X connect 30 0 26 0;
#X connect 31 0 27 0;
#X connect 32 0 12 0;
#X connect 33 0 11 0;
#X connect 34 0 13 0;
#X connect 35 0 29 0;
#X connect 36 0 35 0;
#X connect 37 0 36 2;
#X connect 39 0 43 0;
#X connect 40 0 39 1;
#X connect 41 0 39 2;
#X connect 43 0 46 0;
#X connect 43 0 45 0;
#X connect 44 0 45 1;
#X connect 47 0 46 1;
#X connect 48 0 46 2;
#X connect 49 0 46 0;
#X connect 50 0 47 0;
#X connect 51 0 48 0;
#X connect 52 0 53 0;
#X connect 53 0 0 0;
#X connect 54 0 55 0;
#X connect 56 0 55 1;
#X connect 57 0 45 0;
#X connect 58 0 46 0;
#X connect 60 0 61 0;
#X connect 61 0 62 0;
#X connect 62 0 63 0;
#X connect 65 0 64 0;
#X connect 66 0 64 1;
#X connect 69 0 68 1;
#X connect 70 0 68 2;
#X connect 71 0 74 0;
#X connect 73 0 71 0;
#X connect 74 0 72 0;
#X connect 77 0 79 0;
#X connect 77 0 76 0;
#X connect 77 1 80 0;
#X connect 77 2 83 0;
#X connect 80 0 81 0;
#X connect 82 0 84 0;
#X connect 82 0 95 0;
#X connect 83 0 82 0;
#X connect 83 0 78 0;
#X connect 84 0 85 0;
#X connect 85 0 86 0;
#X connect 86 0 87 0;
#X connect 87 0 88 0;
#X connect 88 0 91 0;
#X connect 89 0 77 0;
#X connect 90 0 82 0;
#X connect 93 0 56 0;
#X connect 94 0 96 0;
#X connect 95 0 92 0;
#X connect 95 0 98 0;
#X connect 96 0 55 1;
#X connect 97 0 55 1;
#X connect 98 0 99 0;
#X connect 99 0 100 0;
#X connect 99 0 94 0;
#X connect 99 0 93 0;
#X connect 100 0 97 0;
