#N canvas 1625 44 1730 1203 12;
#X obj 96 85 gemwin;
#X obj 66 55 tgl 19 0 empty empty empty 0 -10 0 12 #fcfcfc #000000 #000000 0 1;
#X msg 98 56 create;
#X msg 153 54 destroy;
#X msg 102 27 dimen 800 600;
#X msg 242 580 draw line;
#X msg 243 602 draw point;
#X obj 330 13 gemhead;
#X obj 329 55 part_head;
#X obj 329 116 part_source;
#X obj 330 148 part_killold;
#X obj 326 585 part_draw;
#X floatatom 417 30 5 0 0 0 - - - 0;
#X floatatom 421 126 5 0 0 0 - - - 0;
#X floatatom 358 84 5 0 0 0 - - - 0;
#X msg 418 55 speed \$1;
#X obj 469 275 scaleXYZ;
#X floatatom 540 271 5 0 0 0 - - - 0;
#X floatatom 580 272 5 0 0 0 - - - 0;
#X floatatom 622 273 5 0 0 0 - - - 0;
#X floatatom 547 238 5 0 0 0 - - - 0;
#X floatatom 587 239 5 0 0 0 - - - 0;
#X floatatom 629 240 5 0 0 0 - - - 0;
#X obj 467 243 rotateXYZ;
#X floatatom 619 206 5 0 1 0 - - - 0;
#X obj 468 208 colorRGB;
#X floatatom 577 207 5 0 1 0 - - - 0;
#X floatatom 537 208 5 0 1 0 - - - 0;
#X floatatom 416 84 5 0 0 0 - - - 0;
#X floatatom 455 84 5 0 0 0 - - - 0;
#X floatatom 566 308 5 0 0 0 - - - 0;
#X floatatom 606 309 5 0 0 0 - - - 0;
#X floatatom 648 310 5 0 0 0 - - - 0;
#X obj 469 309 translateXYZ;
#X floatatom 286 244 5 0 0 0 - - - 0;
#X floatatom 326 245 5 0 0 0 - - - 0;
#X floatatom 368 244 5 0 0 0 - - - 0;
#X obj 192 243 translateXYZ;
#X obj 328 473 part_velocity sphere 0 0.1 0 0.1;
#X msg 340 202 -3.13;
#X msg 391 208 0.33;
#X msg 480 122 40.55;
#X msg 467 28 0.17;
#X msg 521 79 95;
#X obj 326 440 part_gravity 0 -0.01 0;
#X obj 324 407 part_orbitpoint 2 0 0;
#X floatatom 484 402 5 0 0 0 - - - 0;
#X text 531 404 nice att modulera!;
#X obj 329 522 part_color;
#X msg 357 497 1 1 0;
#X msg 417 499 0 0 1;
#X text 461 502 tryck för färger;
#X connect 1 0 0 0;
#X connect 2 0 0 0;
#X connect 3 0 0 0;
#X connect 4 0 0 0;
#X connect 5 0 11 0;
#X connect 6 0 11 0;
#X connect 7 0 8 0;
#X connect 8 0 9 0;
#X connect 9 0 10 0;
#X connect 10 0 37 0;
#X connect 12 0 15 0;
#X connect 13 0 10 1;
#X connect 14 0 9 1;
#X connect 15 0 8 0;
#X connect 16 0 33 0;
#X connect 17 0 16 1;
#X connect 18 0 16 2;
#X connect 19 0 16 3;
#X connect 20 0 23 1;
#X connect 21 0 23 2;
#X connect 22 0 23 3;
#X connect 23 0 16 0;
#X connect 24 0 25 3;
#X connect 25 0 23 0;
#X connect 26 0 25 2;
#X connect 27 0 25 1;
#X connect 30 0 33 1;
#X connect 31 0 33 2;
#X connect 32 0 33 3;
#X connect 34 0 37 1;
#X connect 35 0 37 2;
#X connect 36 0 37 3;
#X connect 37 0 45 0;
#X connect 38 0 48 0;
#X connect 39 0 35 0;
#X connect 40 0 36 0;
#X connect 41 0 13 0;
#X connect 42 0 12 0;
#X connect 43 0 14 0;
#X connect 44 0 38 0;
#X connect 45 0 44 0;
#X connect 46 0 45 2;
#X connect 48 0 11 0;
#X connect 49 0 48 1;
#X connect 50 0 48 2;
