#N canvas 1301 92 1730 1203 12;
#X obj 96 85 gemwin;
#X obj 72 86 tgl 19 0 empty empty empty 0 -10 0 12 #fcfcfc #000000 #000000 0 1;
#X msg 123 54 create;
#X msg 178 52 destroy;
#X msg 127 25 dimen 800 600;
#X msg 242 580 draw line;
#X msg 243 602 draw point;
#X obj 323 57 gemhead;
#X obj 322 99 part_head;
#X obj 322 160 part_source;
#X obj 323 192 part_killold;
#X floatatom 410 74 5 0 0 0 - - - 0;
#X floatatom 414 170 5 0 0 0 - - - 0;
#X floatatom 351 128 5 0 0 0 - - - 0;
#X msg 411 99 speed \$1;
#X obj 342 285 scaleXYZ;
#X floatatom 413 281 5 0 0 0 - - - 0;
#X floatatom 453 282 5 0 0 0 - - - 0;
#X floatatom 495 283 5 0 0 0 - - - 0;
#X floatatom 420 248 5 0 0 0 - - - 0;
#X floatatom 460 249 5 0 0 0 - - - 0;
#X floatatom 502 250 5 0 0 0 - - - 0;
#X obj 340 253 rotateXYZ;
#X floatatom 409 128 5 0 0 0 - - - 0;
#X floatatom 448 128 5 0 0 0 - - - 0;
#X floatatom 419 367 5 0 0 0 - - - 0;
#X floatatom 459 368 5 0 0 0 - - - 0;
#X floatatom 501 367 5 0 0 0 - - - 0;
#X obj 325 366 translateXYZ;
#X obj 328 473 part_velocity sphere 0 0.1 0 0.1;
#X msg 473 325 -3.13;
#X msg 524 331 0.33;
#X msg 473 166 40.55;
#X msg 460 72 0.17;
#X msg 514 123 95;
#X obj 326 440 part_gravity 0 -0.01 0;
#X obj 324 407 part_orbitpoint 2 0 0;
#X floatatom 484 402 5 0 0 0 - - - 0;
#X text 531 404 nice att modulera!;
#X obj 329 522 part_color;
#X msg 357 497 1 1 0;
#X msg 417 499 0 0 1;
#X text 461 502 tryck för färger;
#X obj 329 555 part_render;
#X floatatom 383 585 5 0 0 0 - - - 0;
#X obj 331 593 circle;
#X obj 560 587 sphere;
#X floatatom 615 576 5 0 0 0 - - - 0;
#X floatatom 656 576 5 0 0 0 - - - 0;
#X msg 617 605 draw line;
#X msg 622 550 17;
#X msg 667 552 17;
#X obj 35 0 tgl 19 0 empty empty empty 0 -10 0 12 #fcfcfc #000000 #000000 0 1;
#X msg 36 23 lighting \$1;
#X obj 7 215 gemhead;
#X obj 9 248 world_light;
#X msg 68 222 1 1 1;
#X msg 122 222 1 0 0;
#X msg 122 247 1 1 0;
#X msg 237 535 draw fill;
#X msg 519 630 draw fill;
#X text 4 157 lighting ger skuggor/highlights åt 3-d objekt!;
#X connect 1 0 0 0;
#X connect 2 0 0 0;
#X connect 3 0 0 0;
#X connect 4 0 0 0;
#X connect 5 0 45 0;
#X connect 6 0 45 0;
#X connect 7 0 8 0;
#X connect 8 0 9 0;
#X connect 9 0 10 0;
#X connect 10 0 28 0;
#X connect 11 0 14 0;
#X connect 12 0 10 1;
#X connect 13 0 9 1;
#X connect 14 0 8 0;
#X connect 16 0 15 1;
#X connect 17 0 15 2;
#X connect 18 0 15 3;
#X connect 19 0 22 1;
#X connect 20 0 22 2;
#X connect 21 0 22 3;
#X connect 22 0 15 0;
#X connect 25 0 28 1;
#X connect 26 0 28 2;
#X connect 27 0 28 3;
#X connect 28 0 36 0;
#X connect 29 0 39 0;
#X connect 30 0 26 0;
#X connect 31 0 27 0;
#X connect 32 0 12 0;
#X connect 33 0 11 0;
#X connect 34 0 13 0;
#X connect 35 0 29 0;
#X connect 36 0 35 0;
#X connect 37 0 36 2;
#X connect 39 0 43 0;
#X connect 40 0 39 1;
#X connect 41 0 39 2;
#X connect 43 0 46 0;
#X connect 43 0 45 0;
#X connect 44 0 45 1;
#X connect 47 0 46 1;
#X connect 48 0 46 2;
#X connect 49 0 46 0;
#X connect 50 0 47 0;
#X connect 51 0 48 0;
#X connect 52 0 53 0;
#X connect 53 0 0 0;
#X connect 54 0 55 0;
#X connect 56 0 55 1;
#X connect 57 0 55 1;
#X connect 58 0 55 1;
#X connect 59 0 45 0;
#X connect 60 0 46 0;
