#N canvas 171 279 1284 681 16;
#X declare -lib Gem;
#X declare -lib purest_json;
#X declare -path minafiler;
#X obj 53 51 declare -lib Gem;
#X obj 58 635 gemwin;
#X obj 1298 97 gemhead;
#X msg 64 332 0 \, destroy;
#X msg 60 399 create \, 1;
#X msg 280 559 destroy;
#X msg 470 560 create;
#X msg 474 620 1;
#X msg 319 617 0;
#X msg 53 191 dimen 640 360;
#X obj 1374 1052 sphere;
#X obj 1532 1020 loadbang;
#X obj 1372 494 translateXYZ;
#X obj 1372 448 rotateXYZ;
#X obj 1370 331 scaleXYZ;
#X floatatom 1581 444 5 0 0 0 - - - 0;
#X obj 1578 335 hsl 200 40 0.2 2 0 0 empty empty empty -2 -8 0 10 #9c9c9c #000000 #000000 0 1;
#X obj 1569 710 hsl 200 40 0 1 0 0 empty empty empty -2 -8 0 10 #fcc4c4 #000000 #000000 0 1;
#X obj 1372 759 colorRGB;
#X obj 1575 762 hsl 200 40 0 5 0 0 empty empty empty -2 -8 0 10 #c4fcc4 #000000 #000000 0 1;
#X obj 1571 811 hsl 200 40 0 1 0 0 empty empty empty -2 -8 0 10 #c4fcfc #000000 #000000 0 1;
#X text 1807 331 breath-movement;
#X text 1842 754 ev koppla in dessa till breath;
#X obj 830 1050 circle;
#X obj 990 1010 loadbang;
#X msg 990 1070 draw line;
#X obj 780 1000 hsl 200 40 0.2 3 0 0 empty empty empty -2 -8 0 10 #9c9c9c #000000 #000000 0 1;
#X text 100 480 destr/cre = fönstret \, 0 1 = rendering;
#X obj 2238 1197 json-encode;
#X obj 2544 308 route Energy Height Direction;
#X floatatom 2545 340 5 0 0 0 - - - 0;
#X obj 266 45 declare -lib purest_json;
#X obj 329 99 declare -path minafiler;
#X obj 2543 277 get 1-breathmid3min.json;
#X obj 2542 246 bng 24 250 50 0 empty empty empty 0 -12 0 16 #fcfcfc #000000 #000000;
#X obj 1368 588 ambientRGB;
#X obj 1567 513 hsl 200 40 0 1 0 0 empty empty empty -2 -8 0 10 #fcc4c4 #000000 #000000 0 1;
#X obj 1568 563 hsl 200 40 0 1 0 0 empty empty empty -2 -8 0 10 #c4fcc4 #000000 #000000 0 1;
#X obj 1569 614 hsl 200 40 0 1 0 0 empty empty empty -2 -8 0 10 #c4fcfc #000000 #000000 0 1;
#X obj 2244 72 print received;
#X floatatom 1929 144 5 0 0 0 - - - 0;
#X obj 1935 111 route Note Height Energy;
#X obj 2229 125 print received;
#X obj 1898 133 bng 24 250 50 0 empty empty empty 0 -12 0 16 #fcfcfc #000000 #000000;
#X obj 2003 144 int;
#X floatatom 2080 211 5 0 0 0 - - - 0;
#X obj 1597 266 square;
#X floatatom 2169 212 17 0 0 0 - - - 0;
#X obj 2072 142 f;
#X obj 2051 278 - 10;
#X obj 2015 307 * 10;
#X obj 1526 229 rotateXYZ;
#X floatatom 1735 225 5 0 0 0 - - - 0;
#X floatatom 1651 134 5 0 0 0 - - - 0;
#X floatatom 2032 407 5 0 0 0 - - - 0;
#X obj 2029 476 - 1;
#X obj 2017 536 * 2;
#X floatatom 1964 667 5 0 0 0 - - - 0;
#X obj 1965 609 1 0.1;
#X obj 1478 944 circle;
#X obj 1654 900 loadbang;
#X msg 1654 956 draw line;
#X obj 1775 902 translateXYZ;
#X floatatom 1916 868 5 0 1 0 - - - 0;
#X floatatom 1962 868 5 0 1 0 - - - 0;
#X floatatom 2020 867 5 0 1 0 - - - 0;
#X msg 1641 186 draw line;
#X floatatom 1542 119 5 0 0 0 - - - 0;
#X msg 1532 1076 draw fill;
#X obj 2248 668 bng 24 250 50 0 empty empty empty 0 -12 0 16 #fcfcfc #000000 #000000;
#X obj 2236 734 tabwrite arrayxxx;
#X obj 2259 576 tgl 24 0 empty empty empty 0 -12 0 16 #fcfcfc #000000 #000000 0 1;
#N canvas 0 50 450 250 (subpatch) 0;
#X array arrayxxx 4 float 3;
#A 0 0.414003 0 0 0;
#X coords 0 -1 4 1 200 140 1 0 0;
#X restore 2434 582 graph;
#X msg 1640 1034 draw line;
#X msg 1037 1231 draw fill;
#X obj 1034 490 openpanel;
#X obj 1027 597 readsf~;
#X msg 944 560 0;
#X msg 1147 544 1;
#X obj 1025 666 *~;
#X floatatom 1062 664 5 0 1 0 - - - 0;
#X obj 1022 700 +~;
#X obj 1026 759 dac~;
#X obj 1038 433 bng 24 250 50 0 empty empty empty 0 -12 0 16 #fcfcfc #000000 #000000;
#X msg 1034 527 open \$1;
#X obj 890 14 adc~;
#X obj 816 78 *~;
#X floatatom 853 76 5 0 1 0 - - - 0;
#X obj 881 138 dac~;
#X obj 604 270 metro 100;
#X obj 609 225 tgl 24 0 empty empty empty 0 -12 0 16 #fcfcfc #000000 #000000 0 1;
#N canvas 0 50 450 250 (subpatch) 0;
#X array arrayxxx2 100 float 1;
#A 0 0 0 0 0 0 0 0 0 0 0 0 0 0 0 0 0 0 0 0 0 0 0 0 0 0 0 0 0 0 0 0 0 0 0 0 0 0 0 0 0 0 0 0 0 0 0 0 0 0 0 0 0 0 0 0 0 0 0 0 0 0 0 0 0 0 0 0 0 0 0 0 0 0 0 0 0 0 0 0 0 0 0 0 0 0 0 0 0 0 0 0 0 0 0 0 0 0 0 0 0;
#X coords 0 -1 99 1 200 140 1 0 0;
#X restore 739 226 graph;
#X obj 613 307 bng 24 250 50 0 empty empty empty 0 -12 0 16 #fcfcfc #000000 #000000;
#X obj 586 383 tabwrite~ arrayxxx2;
#X obj 2254 621 metro 1000;
#X obj 913 75 *~;
#X floatatom 950 73 5 0 1 0 - - - 0;
#X obj 1110 1326 newWave;
#X msg 1182 1273 draw line;
#X obj 1410 1179 hsl 200 40 0 1 0 0 empty empty empty -2 -8 0 10 #fcc4c4 #000000 #000000 0 1;
#X obj 1213 1228 colorRGB;
#X obj 1416 1231 hsl 200 40 0 5 0 0 empty empty empty -2 -8 0 10 #c4fcc4 #000000 #000000 0 1;
#X obj 1412 1280 hsl 200 40 0 1 0 0 empty empty empty -2 -8 0 10 #c4fcfc #000000 #000000 0 1;
#X obj 1120 1111 translateXYZ;
#X floatatom 1194 1019 5 0 0 0 - - - 0;
#X floatatom 1216 1071 5 0 0 0 - - - 0;
#X floatatom 1291 1089 5 0 0 0 - - - 0;
#X obj 1246 930 scaleXYZ;
#X floatatom 1243 885 5 0 0 0 - - - 0;
#X floatatom 1302 879 5 0 0 0 - - - 0;
#X floatatom 1357 900 5 0 0 0 - - - 0;
#X obj 832 1847 teapot;
#X msg 722 1800 draw line;
#X obj 850 1755 translateXYZ;
#X floatatom 904 1667 5 0 500 0 - - - 0;
#X floatatom 946 1715 5 0 500 0 - - - 0;
#X floatatom 1021 1733 5 0 500 0 - - - 0;
#X obj 863 1407 scaleXYZ;
#X floatatom 860 1362 5 0 400 0 - - - 0;
#X floatatom 919 1356 5 0 400 0 - - - 0;
#X floatatom 973 1377 5 0 400 0 - - - 0;
#X msg 978 1799 draw fill;
#X floatatom 811 1232 5 0 400 0 - - - 0;
#X floatatom 870 1226 5 0 360 0 - - - 0;
#X floatatom 925 1247 5 0 400 0 - - - 0;
#X obj 814 1277 rotateXYZ;
#X obj 924 1149 gemhead;
#X obj 1200 1389 random 360;
#X floatatom 1205 1439 5 0 0 0 - - - 0;
#X obj 998 1485 hsl 200 40 0 1 0 0 empty empty empty -2 -8 0 10 #fcc4c4 #000000 #000000 0 1;
#X obj 801 1534 colorRGB;
#X obj 1004 1537 hsl 200 40 0 5 0 0 empty empty empty -2 -8 0 10 #c4fcc4 #000000 #000000 0 1;
#X obj 1000 1586 hsl 200 40 0 1 0 0 empty empty empty -2 -8 0 10 #c4fcfc #000000 #000000 0 1;
#X obj 665 1443 random 360;
#X floatatom 671 1493 5 0 0 0 - - - 0;
#X obj 659 1392 bng 24 250 50 0 empty empty empty 0 -12 0 16 #fcfcfc #000000 #000000;
#X obj 661 1280 tgl 24 0 empty empty empty 0 -12 0 16 #fcfcfc #000000 #000000 0 1;
#X obj 658 1354 metro 500;
#X obj 675 1559 / 100;
#X text 2263 543 behövs bangen?!;
#X obj 2120 1291 json-decode;
#X obj 96 961 gemhead;
#X obj 15 1279 pix_draw;
#X obj 27 1095 openpanel;
#X obj 53 80 bng 24 250 50 0 empty empty empty 0 -12 0 16 #fcfcfc #000000 #000000;
#X obj 27 1061 bng 24 250 50 0 empty empty empty 0 -12 0 16 #fcfcfc #000000 #000000;
#X obj 50 1171 tgl 24 0 empty empty empty 0 -12 0 16 #fcfcfc #000000 #000000 0 1;
#X msg 46 1206 thread \$1;
#X msg 27 1127 open dremclouds.jpg;
#X obj 15 1239 pix_image dremclouds.jpg;
#X obj 62 2268 cnv 15 100 60 empty empty empty 20 12 0 14 #bcbcbc #404040 0;
#N canvas 0 50 450 300 gemwin 0;
#X obj 132 136 gemwin;
#X obj 67 89 outlet;
#X obj 67 10 inlet;
#X obj 67 41 route create;
#X msg 67 70 set destroy;
#X msg 142 68 set create;
#X msg 132 112 create \, 1;
#X msg 198 112 destroy;
#X msg 234 221 dimen 500 500;
#X msg 279 189 dimen 1024 768;
#X connect 2 0 3 0;
#X connect 3 0 4 0;
#X connect 3 0 6 0;
#X connect 3 1 5 0;
#X connect 3 1 7 0;
#X connect 4 0 1 0;
#X connect 5 0 1 0;
#X connect 6 0 0 0;
#X connect 7 0 0 0;
#X connect 8 0 0 0;
#X connect 9 0 0 0;
#X restore 67 2307 pd gemwin;
#X msg 67 2288 create;
#X text 63 2266 Create window:;
#X obj 206 1321 gemhead;
#X obj -1 2267 square 3;
#X text 311 1521 set base fragment color;
#X obj 325 1382 openpanel;
#X msg 325 1414 open dremclouds.jpg;
#X obj 325 1447 pix_image dremclouds.jpg;
#X obj 249 1971 pix_texture;
#X floatatom 314 1626 5 0 1 0 - - - 0;
#X msg 313 1653 texunit \$1;
#X msg 319 1723 yuv \$1;
#X obj 53 80 tgl 24 0 empty empty empty 0 -12 0 16 #fcfcfc #000000 #000000 0 1;
#X obj 323 1695 tgl 24 0 empty empty empty 0 -12 0 16 #fcfcfc #000000 #000000 0 1;
#X floatatom 392 1698 5 0 0 0 - - - 0;
#X msg 391 1725 pbo \$1;
#X msg 321 1799 env \$1;
#X obj 486 1746 hradio 24 1 0 6 empty empty empty 0 -12 0 16 #fcfcfc #000000 #000000 0;
#X obj 283 1830 tgl 24 0 empty empty empty 0 -12 0 16 #fcfcfc #000000 #000000 0 1;
#X msg 282 1857 quality \$1;
#X obj 404 1829 tgl 24 0 empty empty empty 0 -12 0 16 #fcfcfc #000000 #000000 0 1;
#X msg 403 1856 repeat \$1;
#X obj 283 1892 tgl 24 0 empty empty empty 0 -12 0 16 #fcfcfc #000000 #000000 0 1;
#X obj 469 1890 tgl 24 0 empty empty empty 0 -12 0 16 #fcfcfc #000000 #000000 0 1;
#X msg 282 1919 client_storage \$1;
#X msg 467 1919 rectangle \$1;
#X obj 353 1599 color 0 0.5 0;
#X obj 382 1571 pack 0 0 1;
#X obj 383 1541 t b f;
#X obj 444 1541 t b f;
#X floatatom 385 1506 5 0 256 2 G - - 0;
#X floatatom 445 1506 5 0 256 2 B - - 0;
#X floatatom 330 1505 5 0 256 2 R - - 0;
#X obj 248 2007 square 3;
#X text 1271 38 scale \, rotate & rotate for teapot;
#X obj 365 1302 bng 24 250 50 0 empty empty empty 0 -12 0 16 #fcfcfc #000000 #000000;
#X obj 1935 52 netreceive 13002;
#X obj 2236 269 s energii;
#X connect 3 0 1 0;
#X connect 4 0 1 0;
#X connect 5 0 1 0;
#X connect 6 0 1 0;
#X connect 7 0 1 0;
#X connect 8 0 1 0;
#X connect 9 0 1 0;
#X connect 12 0 35 0;
#X connect 13 0 12 0;
#X connect 14 0 13 0;
#X connect 15 0 13 1;
#X connect 16 0 14 1;
#X connect 16 0 14 2;
#X connect 16 0 14 3;
#X connect 17 0 18 1;
#X connect 18 0 10 0;
#X connect 18 0 62 0;
#X connect 19 0 18 2;
#X connect 20 0 18 3;
#X connect 24 0 25 0;
#X connect 25 0 23 0;
#X connect 26 0 23 1;
#X connect 29 1 30 0;
#X connect 33 0 29 0;
#X connect 34 0 33 0;
#X connect 35 0 18 0;
#X connect 35 0 107 0;
#X connect 36 0 35 1;
#X connect 37 0 35 2;
#X connect 38 0 35 3;
#X connect 38 0 35 4;
#X connect 40 0 52 0;
#X connect 41 0 43 0;
#X connect 41 0 40 0;
#X connect 41 1 44 0;
#X connect 41 2 48 0;
#X connect 43 0 127 0;
#X connect 44 0 45 0;
#X connect 45 0 53 0;
#X connect 47 0 49 0;
#X connect 47 0 189 0;
#X connect 48 0 47 0;
#X connect 48 0 42 0;
#X connect 49 0 50 0;
#X connect 50 0 16 0;
#X connect 50 0 54 0;
#X connect 50 0 64 0;
#X connect 51 0 46 0;
#X connect 52 0 51 1;
#X connect 52 0 67 0;
#X connect 53 0 51 2;
#X connect 54 0 55 0;
#X connect 54 0 65 0;
#X connect 55 0 56 0;
#X connect 55 0 70 0;
#X connect 56 0 17 0;
#X connect 56 0 58 0;
#X connect 56 0 102 0;
#X connect 56 0 132 0;
#X connect 57 0 20 0;
#X connect 57 0 101 0;
#X connect 57 0 110 0;
#X connect 57 0 131 0;
#X connect 58 0 57 0;
#X connect 60 0 61 0;
#X connect 61 0 59 0;
#X connect 62 0 59 0;
#X connect 63 0 62 2;
#X connect 64 0 62 3;
#X connect 65 0 62 1;
#X connect 66 0 46 0;
#X connect 67 0 51 3;
#X connect 68 0 10 0;
#X connect 69 0 70 0;
#X connect 71 0 94 0;
#X connect 73 0 10 0;
#X connect 74 0 97 0;
#X connect 75 0 84 0;
#X connect 76 0 79 0;
#X connect 77 0 76 0;
#X connect 78 0 76 0;
#X connect 79 0 81 0;
#X connect 80 0 79 1;
#X connect 81 0 82 0;
#X connect 81 0 82 1;
#X connect 83 0 75 0;
#X connect 84 0 76 0;
#X connect 85 0 86 0;
#X connect 85 1 95 0;
#X connect 86 0 88 0;
#X connect 86 0 93 0;
#X connect 87 0 86 1;
#X connect 89 0 92 0;
#X connect 90 0 89 0;
#X connect 92 0 93 0;
#X connect 94 0 69 0;
#X connect 95 0 88 1;
#X connect 96 0 95 1;
#X connect 98 0 97 0;
#X connect 99 0 100 1;
#X connect 100 0 97 0;
#X connect 101 0 100 2;
#X connect 102 0 100 3;
#X connect 103 0 100 0;
#X connect 104 0 103 1;
#X connect 105 0 103 2;
#X connect 106 0 103 3;
#X connect 107 0 103 0;
#X connect 108 0 107 1;
#X connect 109 0 107 2;
#X connect 110 0 107 3;
#X connect 112 0 111 0;
#X connect 113 0 111 0;
#X connect 114 0 113 1;
#X connect 115 0 113 2;
#X connect 116 0 113 3;
#X connect 117 0 130 0;
#X connect 118 0 117 1;
#X connect 119 0 117 2;
#X connect 120 0 117 3;
#X connect 121 0 111 0;
#X connect 122 0 125 1;
#X connect 123 0 125 2;
#X connect 124 0 125 3;
#X connect 125 0 117 0;
#X connect 127 0 128 0;
#X connect 129 0 130 1;
#X connect 130 0 113 0;
#X connect 131 0 130 2;
#X connect 132 0 130 3;
#X connect 133 0 134 0;
#X connect 134 0 138 0;
#X connect 134 0 124 0;
#X connect 135 0 133 0;
#X connect 136 0 137 0;
#X connect 137 0 135 0;
#X connect 138 0 114 0;
#X connect 143 0 148 0;
#X connect 145 0 143 0;
#X connect 146 0 147 0;
#X connect 147 0 149 0;
#X connect 148 0 149 0;
#X connect 149 0 142 0;
#X connect 151 0 152 0;
#X connect 152 0 151 0;
#X connect 154 0 160 0;
#X connect 157 0 158 0;
#X connect 158 0 159 0;
#X connect 159 0 178 0;
#X connect 160 0 185 0;
#X connect 161 0 162 0;
#X connect 162 0 160 0;
#X connect 163 0 160 0;
#X connect 165 0 163 0;
#X connect 166 0 167 0;
#X connect 167 0 160 0;
#X connect 168 0 160 0;
#X connect 169 0 168 0;
#X connect 170 0 171 0;
#X connect 171 0 160 0;
#X connect 172 0 173 0;
#X connect 173 0 160 0;
#X connect 174 0 176 0;
#X connect 175 0 177 0;
#X connect 176 0 160 0;
#X connect 177 0 160 0;
#X connect 178 0 160 0;
#X connect 179 0 178 0;
#X connect 180 0 179 0;
#X connect 180 1 179 1;
#X connect 181 0 179 0;
#X connect 181 1 179 2;
#X connect 182 0 180 0;
#X connect 183 0 181 0;
#X connect 184 0 179 0;
#X connect 187 0 157 0;
#X connect 188 0 41 0;
#X coords 0 -1 1 1 200 60 1 100 100;
