#N canvas 1908 0 1916 1941 16;
#X declare -lib Gem;
#X declare -lib purest_json;
#X declare -path minafiler;
#X obj 53 51 declare -lib Gem;
#X obj 58 635 gemwin;
#X obj 1218 658 gemhead;
#X msg 64 332 0 \, destroy;
#X msg 60 399 create \, 1;
#X msg 280 559 destroy;
#X msg 470 560 create;
#X msg 474 620 1;
#X msg 319 617 0;
#X msg 53 191 dimen 640 360;
#X obj 1374 1052 sphere;
#X obj 1532 1020 loadbang;
#X obj 1372 494 translateXYZ;
#X obj 1372 448 rotateXYZ;
#X obj 1370 331 scaleXYZ;
#X floatatom 1581 444 5 0 0 0 - - - 0;
#X obj 1578 335 hsl 200 40 0.2 2 0 0 empty empty empty -2 -8 0 10 #9c9c9c #000000 #000000 0 1;
#X obj 1569 710 hsl 200 40 0 1 0 0 empty empty empty -2 -8 0 10 #fcc4c4 #000000 #000000 0 1;
#X obj 1372 759 colorRGB;
#X obj 1575 762 hsl 200 40 0 5 0 0 empty empty empty -2 -8 0 10 #c4fcc4 #000000 #000000 0 1;
#X obj 1571 811 hsl 200 40 0 1 0 0 empty empty empty -2 -8 0 10 #c4fcfc #000000 #000000 0 1;
#X text 1807 331 breath-movement;
#X text 1842 754 ev koppla in dessa till breath;
#X obj 830 1050 circle;
#X obj 990 1010 loadbang;
#X msg 990 1070 draw line;
#X obj 780 1000 hsl 200 40 0.2 3 0 0 empty empty empty -2 -8 0 10 #9c9c9c #000000 #000000 0 1;
#X text 100 480 destr/cre = fönstret \, 0 1 = rendering;
#X obj 2552 1049 json-encode;
#X obj 2544 308 route Energy Height Direction;
#X floatatom 2545 340 5 0 0 0 - - - 0;
#X obj 266 45 declare -lib purest_json;
#X obj 285 106 declare -path minafiler;
#X obj 2543 277 get 1-breathmid3min.json;
#X obj 2542 246 bng 24 250 50 0 empty empty empty 0 -12 0 16 #fcfcfc #000000 #000000;
#X obj 1368 588 ambientRGB;
#X obj 1567 513 hsl 200 40 0 1 0 0 empty empty empty -2 -8 0 10 #fcc4c4 #000000 #000000 0 1;
#X obj 1568 563 hsl 200 40 0 1 0 0 empty empty empty -2 -8 0 10 #c4fcc4 #000000 #000000 0 1;
#X obj 1569 614 hsl 200 40 0 1 0 0 empty empty empty -2 -8 0 10 #c4fcfc #000000 #000000 0 1;
#X obj 2244 72 print received;
#X floatatom 1934 147 5 0 0 0 - - - 0;
#X obj 1935 111 route Note Height Energy;
#X obj 2229 125 print received;
#X obj 1833 162 bng 24 250 50 0 empty empty empty 0 -12 0 16 #fcfcfc #000000 #000000;
#X obj 2078 167 int;
#X floatatom 2080 211 5 0 0 0 - - - 0;
#X obj 1597 266 square;
#X floatatom 2169 212 17 0 0 0 - - - 0;
#X obj 2167 169 f;
#X obj 2051 278 - 10;
#X obj 2015 307 * 10;
#X obj 1526 229 rotateXYZ;
#X floatatom 1735 225 5 0 0 0 - - - 0;
#X floatatom 1651 134 5 0 0 0 - - - 0;
#X floatatom 2032 407 5 0 0 0 - - - 0;
#X obj 2029 476 - 1;
#X obj 2017 536 * 2;
#X floatatom 1964 667 5 0 0 0 - - - 0;
#X obj 1965 609 1 0.1;
#X obj 1478 944 circle;
#X obj 1654 900 loadbang;
#X msg 1654 956 draw line;
#X obj 1775 902 translateXYZ;
#X floatatom 1916 868 5 0 1 0 - - - 0;
#X floatatom 1962 868 5 0 1 0 - - - 0;
#X floatatom 2020 867 5 0 1 0 - - - 0;
#X msg 1641 186 draw line;
#X floatatom 1542 119 5 0 0 0 - - - 0;
#X obj 1934 73 netreceive 13001;
#X msg 1532 1076 draw fill;
#X obj 2248 668 bng 24 250 50 0 empty empty empty 0 -12 0 16 #fcfcfc #000000 #000000;
#X obj 2236 734 tabwrite arrayxxx;
#X obj 2259 576 tgl 24 0 empty empty empty 0 -12 0 16 #fcfcfc #000000 #000000 0 1;
#N canvas 0 50 450 250 (subpatch) 0;
#X array arrayxxx 4 float 3;
#A 0 0.217499 0 0 0;
#X coords 0 -1 4 1 200 140 1 0 0;
#X restore 2434 582 graph;
#X msg 1640 1034 draw line;
#X msg 1037 1231 draw fill;
#X obj 1034 490 openpanel;
#X obj 1027 597 readsf~;
#X msg 944 560 0;
#X msg 1147 544 1;
#X obj 1025 666 *~;
#X floatatom 1062 664 5 0 1 0 - - - 0;
#X obj 1022 700 +~;
#X obj 1026 759 dac~;
#X obj 1099 268 osc~ 220;
#X obj 1038 433 bng 24 250 50 0 empty empty empty 0 -12 0 16 #fcfcfc #000000 #000000;
#X msg 1034 527 open \$1;
#X obj 1161 725 adc~;
#X obj 1087 789 *~;
#X floatatom 1124 787 5 0 1 0 - - - 0;
#X obj 1152 849 dac~;
#X obj 551 799 metro 100;
#X obj 556 754 tgl 24 0 empty empty empty 0 -12 0 16 #fcfcfc #000000 #000000 0 1;
#N canvas 0 50 450 250 (subpatch) 0;
#X array arrayxxx2 100 float 1;
#A 0 0 0 0 0 0 0 0 0 0 0 0 0 0 0 0 0 0 0 0 0 0 0 0 0 0 0 0 0 0 0 0 0 0 0 0 0 0 0 0 0 0 0 0 0 0 0 0 0 0 0 0 0 0 0 0 0 0 0 0 0 0 0 0 0 0 0 0 0 0 0 0 0 0 0 0 0 0 0 0 0 0 0 0 0 0 0 0 0 0 0 0 0 0 0 0 0 0 0 0 0;
#X coords 0 -1 99 1 200 140 1 0 0;
#X restore 731 760 graph;
#X obj 560 836 bng 24 250 50 0 empty empty empty 0 -12 0 16 #fcfcfc #000000 #000000;
#X obj 533 912 tabwrite~ arrayxxx2;
#X obj 2254 621 metro 1000;
#X obj 1184 786 *~;
#X floatatom 1221 784 5 0 1 0 - - - 0;
#X obj 1110 1326 newWave;
#X msg 1182 1273 draw line;
#X obj 1410 1179 hsl 200 40 0 1 0 0 empty empty empty -2 -8 0 10 #fcc4c4 #000000 #000000 0 1;
#X obj 1213 1228 colorRGB;
#X obj 1416 1231 hsl 200 40 0 5 0 0 empty empty empty -2 -8 0 10 #c4fcc4 #000000 #000000 0 1;
#X obj 1412 1280 hsl 200 40 0 1 0 0 empty empty empty -2 -8 0 10 #c4fcfc #000000 #000000 0 1;
#X obj 1120 1111 translateXYZ;
#X floatatom 1194 1019 5 0 0 0 - - - 0;
#X floatatom 1216 1071 5 0 0 0 - - - 0;
#X floatatom 1291 1089 5 0 0 0 - - - 0;
#X obj 1246 930 scaleXYZ;
#X floatatom 1243 885 5 0 0 0 - - - 0;
#X floatatom 1302 879 5 0 0 0 - - - 0;
#X floatatom 1357 900 5 0 0 0 - - - 0;
#X obj 832 1847 teapot;
#X msg 722 1800 draw line;
#X obj 850 1755 translateXYZ;
#X floatatom 904 1667 5 0 500 0 - - - 0;
#X floatatom 946 1715 5 0 500 0 - - - 0;
#X floatatom 1021 1733 5 0 500 0 - - - 0;
#X obj 863 1407 scaleXYZ;
#X floatatom 860 1362 5 0 400 0 - - - 0;
#X floatatom 919 1356 5 0 400 0 - - - 0;
#X floatatom 973 1377 5 0 400 0 - - - 0;
#X msg 978 1799 draw fill;
#X floatatom 811 1232 5 0 400 0 - - - 0;
#X floatatom 870 1226 5 0 360 0 - - - 0;
#X floatatom 925 1247 5 0 400 0 - - - 0;
#X obj 814 1277 rotateXYZ;
#X obj 924 1149 gemhead;
#X obj 1200 1389 random 360;
#X floatatom 1205 1439 5 0 0 0 - - - 0;
#X obj 998 1485 hsl 200 40 0 1 0 0 empty empty empty -2 -8 0 10 #fcc4c4 #000000 #000000 0 1;
#X obj 801 1534 colorRGB;
#X obj 1004 1537 hsl 200 40 0 5 0 0 empty empty empty -2 -8 0 10 #c4fcc4 #000000 #000000 0 1;
#X obj 1000 1586 hsl 200 40 0 1 0 0 empty empty empty -2 -8 0 10 #c4fcfc #000000 #000000 0 1;
#X obj 665 1443 random 360;
#X floatatom 671 1493 5 0 0 0 - - - 0;
#X obj 659 1392 bng 24 250 50 0 empty empty empty 0 -12 0 16 #fcfcfc #000000 #000000;
#X obj 661 1280 tgl 24 0 empty empty empty 0 -12 0 16 #fcfcfc #000000 #000000 0 1;
#X obj 658 1354 metro 500;
#X obj 675 1559 / 100;
#X text 2263 543 behövs bangen?!;
#X connect 2 0 14 0;
#X connect 2 0 51 0;
#X connect 2 0 127 0;
#X connect 3 0 1 0;
#X connect 4 0 1 0;
#X connect 5 0 1 0;
#X connect 6 0 1 0;
#X connect 7 0 1 0;
#X connect 8 0 1 0;
#X connect 9 0 1 0;
#X connect 12 0 35 0;
#X connect 13 0 12 0;
#X connect 14 0 13 0;
#X connect 15 0 13 1;
#X connect 16 0 14 1;
#X connect 16 0 14 2;
#X connect 16 0 14 3;
#X connect 17 0 18 1;
#X connect 18 0 10 0;
#X connect 18 0 62 0;
#X connect 19 0 18 2;
#X connect 20 0 18 3;
#X connect 24 0 25 0;
#X connect 25 0 23 0;
#X connect 26 0 23 1;
#X connect 29 1 30 0;
#X connect 33 0 29 0;
#X connect 34 0 33 0;
#X connect 35 0 18 0;
#X connect 35 0 109 0;
#X connect 36 0 35 1;
#X connect 37 0 35 2;
#X connect 38 0 35 3;
#X connect 38 0 35 4;
#X connect 40 0 52 0;
#X connect 41 0 40 0;
#X connect 41 0 43 0;
#X connect 41 1 44 0;
#X connect 41 2 48 0;
#X connect 41 2 42 0;
#X connect 43 0 129 0;
#X connect 44 0 45 0;
#X connect 45 0 53 0;
#X connect 47 0 49 0;
#X connect 48 0 47 0;
#X connect 49 0 50 0;
#X connect 50 0 16 0;
#X connect 50 0 54 0;
#X connect 50 0 64 0;
#X connect 51 0 46 0;
#X connect 52 0 51 1;
#X connect 52 0 67 0;
#X connect 53 0 51 2;
#X connect 54 0 55 0;
#X connect 54 0 65 0;
#X connect 55 0 56 0;
#X connect 55 0 71 0;
#X connect 56 0 17 0;
#X connect 56 0 58 0;
#X connect 56 0 104 0;
#X connect 56 0 134 0;
#X connect 57 0 20 0;
#X connect 57 0 103 0;
#X connect 57 0 112 0;
#X connect 57 0 133 0;
#X connect 58 0 57 0;
#X connect 60 0 61 0;
#X connect 61 0 59 0;
#X connect 62 0 59 0;
#X connect 63 0 62 2;
#X connect 64 0 62 3;
#X connect 65 0 62 1;
#X connect 66 0 46 0;
#X connect 67 0 51 3;
#X connect 68 0 41 0;
#X connect 69 0 10 0;
#X connect 70 0 71 0;
#X connect 72 0 96 0;
#X connect 74 0 10 0;
#X connect 75 0 99 0;
#X connect 76 0 86 0;
#X connect 77 0 80 0;
#X connect 78 0 77 0;
#X connect 79 0 77 0;
#X connect 80 0 82 0;
#X connect 81 0 80 1;
#X connect 82 0 83 0;
#X connect 82 0 83 1;
#X connect 85 0 76 0;
#X connect 86 0 77 0;
#X connect 87 0 88 0;
#X connect 87 1 97 0;
#X connect 88 0 90 0;
#X connect 88 0 95 0;
#X connect 89 0 88 1;
#X connect 91 0 94 0;
#X connect 92 0 91 0;
#X connect 94 0 95 0;
#X connect 96 0 70 0;
#X connect 97 0 90 1;
#X connect 98 0 97 1;
#X connect 100 0 99 0;
#X connect 101 0 102 1;
#X connect 102 0 99 0;
#X connect 103 0 102 2;
#X connect 104 0 102 3;
#X connect 105 0 102 0;
#X connect 106 0 105 1;
#X connect 107 0 105 2;
#X connect 108 0 105 3;
#X connect 109 0 105 0;
#X connect 110 0 109 1;
#X connect 111 0 109 2;
#X connect 112 0 109 3;
#X connect 114 0 113 0;
#X connect 115 0 113 0;
#X connect 116 0 115 1;
#X connect 117 0 115 2;
#X connect 118 0 115 3;
#X connect 119 0 132 0;
#X connect 120 0 119 1;
#X connect 121 0 119 2;
#X connect 122 0 119 3;
#X connect 123 0 113 0;
#X connect 124 0 127 1;
#X connect 125 0 127 2;
#X connect 126 0 127 3;
#X connect 127 0 119 0;
#X connect 129 0 130 0;
#X connect 131 0 132 1;
#X connect 132 0 115 0;
#X connect 133 0 132 2;
#X connect 134 0 132 3;
#X connect 135 0 136 0;
#X connect 136 0 140 0;
#X connect 136 0 126 0;
#X connect 137 0 135 0;
#X connect 138 0 139 0;
#X connect 139 0 137 0;
#X connect 140 0 116 0;
#X coords 0 -1 1 1 200 60 1 100 100;
